<svg width="179" height="56" viewBox="0 0 179 56" fill="none" xmlns="http://www.w3.org/2000/svg">
<g clip-path="url(#clip0)">
<path d="M33.9871 39.4829L26.8098 30.9998H29.5616C30.3711 30.9998 31.0871 30.531 31.4285 29.7754C31.7699 29.0217 31.6576 28.1574 31.1338 27.5208L24.1146 19.0002H26.7101C27.5276 19.0002 28.2643 18.4986 28.5841 17.7243C28.9004 16.9621 28.7512 16.0753 28.2032 15.4669L18.2965 4.4535C17.7548 3.84883 16.7441 3.84883 16.2014 4.4535L6.29382 15.4669C5.7458 16.0753 5.59756 16.9621 5.9129 17.7243C6.23273 18.4986 6.97032 19.0002 7.78787 19.0002H10.3834L3.36323 27.5227C2.84125 28.1583 2.72895 29.0217 3.06945 29.7764C3.41084 30.531 4.12597 30.9998 4.93633 30.9998H7.68815L0.510792 39.4829C-0.0282505 40.1195 -0.150433 40.9913 0.19096 41.7572C0.527862 42.5119 1.26905 42.9994 2.07851 42.9994H14.3741V45.2915L11.6528 49.8288C11.1749 50.8263 11.8702 52 12.9384 52H21.5595C22.6277 52 23.3231 50.8263 22.8451 49.8288L20.1239 45.2915V42.9994H32.4194C33.2289 42.9994 33.9701 42.5119 34.307 41.7572C34.6484 40.9913 34.5262 40.1195 33.9871 39.4829Z" fill="#3CB464"/>
<path d="M64.6776 31.2969L61.3026 35V44H53.0761V9.875H61.3026V24.9219L64.162 20.5859L71.5214 9.875H81.6932L70.162 24.9688L81.6932 44H71.9432L64.6776 31.2969ZM103.162 37.625H91.8886L89.9198 44H81.1307L93.6464 9.875H101.381L113.99 44H105.154L103.162 37.625ZM93.8573 31.2734H101.193L97.5136 19.4375L93.8573 31.2734ZM129.178 31.9531H124.724V44H116.498V9.875H129.928C133.974 9.875 137.139 10.7734 139.42 12.5703C141.701 14.3672 142.842 16.9062 142.842 20.1875C142.842 22.5625 142.357 24.5312 141.389 26.0938C140.435 27.6562 138.935 28.9219 136.889 29.8906L144.014 43.6484V44H135.201L129.178 31.9531ZM124.724 25.6016H129.928C131.49 25.6016 132.662 25.1953 133.443 24.3828C134.24 23.5547 134.639 22.4062 134.639 20.9375C134.639 19.4688 134.24 18.3203 133.443 17.4922C132.646 16.6484 131.474 16.2266 129.928 16.2266H124.724V25.6016ZM167.193 37.625H155.92L153.951 44H145.162L157.678 9.875H165.412L178.021 44H169.185L167.193 37.625ZM157.889 31.2734H165.224L161.545 19.4375L157.889 31.2734Z" fill="black"/>
</g>
<defs>
<clipPath id="clip0">
<rect width="178.498" height="56" fill="white"/>
</clipPath>
</defs>
</svg>
